/* XPM */
static char * userhelper_keys_xpm[] = {
"48 48 669 2",
"  	c None",
". 	c #D6D6D6",
"+ 	c #D5D5D5",
"@ 	c #D5D4D4",
"# 	c #D4D4D4",
"$ 	c #D3D2D2",
"% 	c #D2D2D2",
"& 	c #D1D1D1",
"* 	c #D4D4D3",
"= 	c #D5D5D4",
"- 	c #CFCFCF",
"; 	c #CECECD",
"> 	c #CDCDCC",
", 	c #CCCCCC",
"' 	c #CDCDCD",
") 	c #CECECE",
"! 	c #D4D3D3",
"~ 	c #D2D1D1",
"{ 	c #CDCCCC",
"] 	c #CAC9C9",
"^ 	c #C8C8C7",
"/ 	c #A7A7A6",
"( 	c #C7C7C6",
"_ 	c #A7A7A7",
": 	c #C8C8C8",
"< 	c #A9A8A8",
"[ 	c #CBCBCB",
"} 	c #CFCECE",
"| 	c #CBCBC9",
"1 	c #A7A6A5",
"2 	c #B7B5B5",
"3 	c #A2A1A0",
"4 	c #C2BEB6",
"5 	c #B9B8B8",
"6 	c #BAB9B9",
"7 	c #BBBABA",
"8 	c #B9B6B7",
"9 	c #A6A5A5",
"0 	c #C9C9C9",
"a 	c #D1D1CF",
"b 	c #CFCECC",
"c 	c #CBC9C8",
"d 	c #B7B3B4",
"e 	c #C3BEB6",
"f 	c #B6B5B3",
"g 	c #B3A9A3",
"h 	c #989696",
"i 	c #999998",
"j 	c #A3A2A2",
"k 	c #B4B1B3",
"l 	c #C4C0B9",
"m 	c #8C8C8C",
"n 	c #C8C7C8",
"o 	c #D2D1D0",
"p 	c #D1CFCE",
"q 	c #CFCDCB",
"r 	c #CBC9C7",
"s 	c #BAB6B5",
"t 	c #C3BDB4",
"u 	c #B0ACAB",
"v 	c #969593",
"w 	c #7E7A77",
"x 	c #C2C2C0",
"y 	c #C5C4C3",
"z 	c #C6C6C6",
"A 	c #939393",
"B 	c #B4B1B2",
"C 	c #B8B7B7",
"D 	c #B4B2B3",
"E 	c #8B8A8B",
"F 	c #C9C8C8",
"G 	c #D3D2D1",
"H 	c #D2D1CF",
"I 	c #D1CFCC",
"J 	c #CFCECB",
"K 	c #CECBC8",
"L 	c #CCC9C5",
"M 	c #BBAFA6",
"N 	c #B7B2AF",
"O 	c #B4A8A0",
"P 	c #888480",
"Q 	c #C1BFBC",
"R 	c #C3C2C0",
"S 	c #C6C5C4",
"T 	c #C9C9C8",
"U 	c #CBCACA",
"V 	c #C5C4C5",
"W 	c #B7B6B6",
"X 	c #B1AFB1",
"Y 	c #989797",
"Z 	c #D2D2D1",
"` 	c #D1CFCD",
" .	c #CECCC9",
"..	c #CDCAC5",
"+.	c #CCC8C3",
"@.	c #CCC7C1",
"#.	c #B7AB99",
"$.	c #A8A29B",
"%.	c #A59F98",
"&.	c #807971",
"*.	c #C2BEB8",
"=.	c #C4C0BC",
"-.	c #C7C4C0",
";.	c #C9C8C5",
">.	c #CCCBC9",
",.	c #CECCCC",
"'.	c #CBCAC9",
").	c #C6C5C5",
"!.	c #B0ADAF",
"~.	c #B0ADAE",
"{.	c #959494",
"].	c #C3C3C3",
"^.	c #D0CFCC",
"/.	c #CECBC6",
"(.	c #CBC7C1",
"_.	c #A19581",
":.	c #B3A793",
"<.	c #BEAFA2",
"[.	c #C5B9A8",
"}.	c #CEBFAA",
"|.	c #CFC3B2",
"1.	c #C6B8A3",
"2.	c #AFA08B",
"3.	c #C6C0B9",
"4.	c #C7C3BD",
"5.	c #C9C6C1",
"6.	c #CBC8C5",
"7.	c #CCCBCA",
"8.	c #ACAAAC",
"9.	c #ACA9AB",
"0.	c #828180",
"a.	c #C2C1C0",
"b.	c #CACAC9",
"c.	c #CDCBC6",
"d.	c #CAC6BF",
"e.	c #AAA08B",
"f.	c #B1A48E",
"g.	c #BDAD9A",
"h.	c #C7B69F",
"i.	c #D2C2AB",
"j.	c #CFBEA7",
"k.	c #D1C0AC",
"l.	c #CEBDAA",
"m.	c #CBBAA7",
"n.	c #BFAF9A",
"o.	c #AA9C86",
"p.	c #C3BFB7",
"q.	c #C5C1BB",
"r.	c #C6C3BF",
"s.	c #C6C4C2",
"t.	c #C3C2C1",
"u.	c #BDBCBC",
"v.	c #ADACAB",
"w.	c #A69D98",
"x.	c #777672",
"y.	c #BFBFBE",
"z.	c #D0D0D0",
"A.	c #D6D6D5",
"B.	c #AEA08D",
"C.	c #B3A795",
"D.	c #BFAD97",
"E.	c #D3C2AA",
"F.	c #D2C6B3",
"G.	c #D9CAB6",
"H.	c #D6C5B3",
"I.	c #CCBAA2",
"J.	c #BAA894",
"K.	c #B6A48F",
"L.	c #B2A085",
"M.	c #A6977F",
"N.	c #736B5E",
"O.	c #BCB8B1",
"P.	c #BCB9B5",
"Q.	c #B9B7B4",
"R.	c #8A8988",
"S.	c #9D9B9C",
"T.	c #848383",
"U.	c #706E6B",
"V.	c #BDBDBD",
"W.	c #B3A68F",
"X.	c #BCAB97",
"Y.	c #C6B49C",
"Z.	c #D0BEA6",
"`.	c #D3C6B3",
" +	c #DBCDB8",
".+	c #DACBB6",
"++	c #D4C1AB",
"@+	c #C5B59F",
"#+	c #B8A592",
"$+	c #AC9C86",
"%+	c #A49175",
"&+	c #9C8B70",
"*+	c #9D8A70",
"=+	c #867763",
"-+	c #B0ACA5",
";+	c #ADAAA5",
">+	c #878683",
",+	c #7D7B7A",
"'+	c #6F6E6D",
")+	c #6F6C6A",
"!+	c #BEBEBD",
"~+	c #D4D3D2",
"{+	c #D1D0CE",
"]+	c #CECCC8",
"^+	c #CBC6C0",
"/+	c #A79D87",
"(+	c #BCAB96",
"_+	c #C5B39B",
":+	c #D0BEA5",
"<+	c #D7C5AF",
"[+	c #DCCDB8",
"}+	c #D6C3AD",
"|+	c #C8B8A1",
"1+	c #C2AF94",
"2+	c #B8A389",
"3+	c #AC987A",
"4+	c #9F8E71",
"5+	c #978567",
"6+	c #8D7E62",
"7+	c #897C63",
"8+	c #746A54",
"9+	c #68655E",
"0+	c #75736E",
"a+	c #676562",
"b+	c #64625E",
"c+	c #B3B3B1",
"d+	c #C1C0C0",
"e+	c #CCCCCB",
"f+	c #D0CECB",
"g+	c #A09686",
"h+	c #B4A895",
"i+	c #D0BEA4",
"j+	c #D4C6B2",
"k+	c #CABAA3",
"l+	c #C5B096",
"m+	c #BFA78C",
"n+	c #B19C7C",
"o+	c #A28F72",
"p+	c #9C8869",
"q+	c #978061",
"r+	c #8E785B",
"s+	c #837056",
"t+	c #756A55",
"u+	c #685F50",
"v+	c #615D57",
"w+	c #59554C",
"x+	c #64615A",
"y+	c #B9B7B6",
"z+	c #C5C5C5",
"A+	c #D3D3D3",
"B+	c #CECAC5",
"C+	c #CBC5BE",
"D+	c #B8A992",
"E+	c #C5B39A",
"F+	c #CFBDA4",
"G+	c #D7C4AB",
"H+	c #DDCDB9",
"I+	c #DBC8B6",
"J+	c #D2BEA4",
"K+	c #C7B297",
"L+	c #C1A98D",
"M+	c #B49E7D",
"N+	c #A49174",
"O+	c #9F8A6A",
"P+	c #998262",
"Q+	c #917C5D",
"R+	c #847456",
"S+	c #7E6A50",
"T+	c #716248",
"U+	c #6B5B47",
"V+	c #534E42",
"W+	c #534F49",
"X+	c #B1AFAD",
"Y+	c #BFBFBD",
"Z+	c #CBC6BF",
"`+	c #B6A994",
" @	c #BCAC98",
".@	c #CFBDA3",
"+@	c #D6C3AA",
"@@	c #D5C8B3",
"#@	c #DDCDB8",
"$@	c #DCC9B7",
"%@	c #D6C2AC",
"&@	c #C8B399",
"*@	c #C2AA8F",
"=@	c #B9A388",
"-@	c #AD9778",
";@	c #A18B6C",
">@	c #9B8363",
",@	c #937E5E",
"'@	c #8D7656",
")@	c #816D52",
"!@	c #766548",
"~@	c #675C44",
"{@	c #645742",
"]@	c #645A4A",
"^@	c #A9A7A1",
"/@	c #C5C5C4",
"(@	c #D6D5D5",
"_@	c #D0CECC",
":@	c #CDC9C6",
"<@	c #C9C5BF",
"[@	c #B1A48F",
"}@	c #BBAA97",
"|@	c #C4B199",
"1@	c #CEBBA1",
"2@	c #D4C2A8",
"3@	c #DCCCB8",
"4@	c #DBC8B7",
"5@	c #D6C2AD",
"6@	c #C8B39A",
"7@	c #C4AB90",
"8@	c #BBA489",
"9@	c #B19B7A",
"0@	c #A28D6D",
"a@	c #9C8464",
"b@	c #947F5F",
"c@	c #8F7657",
"d@	c #836E53",
"e@	c #776648",
"f@	c #6F5B42",
"g@	c #68563E",
"h@	c #645642",
"i@	c #675D4D",
"j@	c #AFACA7",
"k@	c #BFBDBA",
"l@	c #CCC9C6",
"m@	c #A49583",
"n@	c #B6A48B",
"o@	c #BBA791",
"p@	c #C2AF96",
"q@	c #CCBAA0",
"r@	c #D3C0AB",
"s@	c #D9C6B5",
"t@	c #D9C7B5",
"u@	c #D4C1AC",
"v@	c #BDA894",
"w@	c #BFA68B",
"x@	c #B39B7B",
"y@	c #A38F72",
"z@	c #9E8869",
"A@	c #958060",
"B@	c #907758",
"C@	c #846F54",
"D@	c #796749",
"E@	c #705F41",
"F@	c #67573B",
"G@	c #5F5039",
"H@	c #5C513E",
"I@	c #655B4C",
"J@	c #B1AFAB",
"K@	c #C2C0BE",
"L@	c #CDCCCB",
"M@	c #C7C4BF",
"N@	c #928678",
"O@	c #B0A08F",
"P@	c #AF9E8E",
"Q@	c #B8A68E",
"R@	c #BDAA91",
"S@	c #C1B29D",
"T@	c #CCB9A1",
"U@	c #D1BEA9",
"V@	c #D1BDA9",
"W@	c #C5B4A0",
"X@	c #BCA794",
"Y@	c #BEA58B",
"Z@	c #B39C7C",
"`@	c #A79376",
" #	c #968161",
".#	c #917959",
"+#	c #867054",
"@#	c #806A4C",
"##	c #715F42",
"$#	c #68573A",
"%#	c #5D5134",
"&#	c #564934",
"*#	c #595347",
"=#	c #B4B1AD",
"-#	c #C4C3C1",
";#	c #D0CFCE",
">#	c #CAC8C5",
",#	c #C2BEB9",
"'#	c #A99B86",
")#	c #9A8B76",
"!#	c #A39279",
"~#	c #A99782",
"{#	c #BAA88F",
"]#	c #BFB29E",
"^#	c #C9B7A6",
"/#	c #B8A594",
"(#	c #B7A391",
"_#	c #BCA489",
":#	c #B59E85",
"<#	c #AA9577",
"[#	c #978262",
"}#	c #92795A",
"|#	c #867455",
"1#	c #816A4E",
"2#	c #736142",
"3#	c #6D593E",
"4#	c #645137",
"5#	c #5A4B33",
"6#	c #544834",
"7#	c #594E3D",
"8#	c #544F48",
"9#	c #B6B4B1",
"0#	c #C5C5C3",
"a#	c #CFCFCE",
"b#	c #D3D3D2",
"c#	c #C7C5C2",
"d#	c #9D9481",
"e#	c #8A806F",
"f#	c #847865",
"g#	c #817660",
"h#	c #837561",
"i#	c #867864",
"j#	c #998871",
"k#	c #B0A18D",
"l#	c #B9A78F",
"m#	c #AE9B89",
"n#	c #AB977C",
"o#	c #AD9779",
"p#	c #AB9575",
"q#	c #9E8B6E",
"r#	c #978266",
"s#	c #937D5E",
"t#	c #8E7556",
"u#	c #826B4E",
"v#	c #746244",
"w#	c #6E593F",
"x#	c #665438",
"y#	c #5A4A31",
"z#	c #52442F",
"A#	c #514633",
"B#	c #5C503F",
"C#	c #878480",
"D#	c #BAB8B6",
"E#	c #C8C8C6",
"F#	c #D1D0D0",
"G#	c #C6C5C1",
"H#	c #928B7C",
"I#	c #847A6A",
"J#	c #7E7361",
"K#	c #7A6E5B",
"L#	c #796C59",
"M#	c #776C5A",
"N#	c #796B59",
"O#	c #7C6E5B",
"P#	c #837661",
"Q#	c #9E8C72",
"R#	c #A6927A",
"S#	c #9D8B70",
"T#	c #968267",
"U#	c #947C5E",
"V#	c #91795A",
"W#	c #8D7556",
"X#	c #836E52",
"Y#	c #786647",
"Z#	c #6F5A40",
"`#	c #675638",
" $	c #5B4E32",
".$	c #54452E",
"+$	c #514531",
"@$	c #544938",
"#$	c #544E43",
"$$	c #AEABA8",
"%$	c #BFBEBC",
"&$	c #CBCBCA",
"*$	c #C7C6C3",
"=$	c #BCB9B4",
"-$	c #877E6F",
";$	c #796E5E",
">$	c #766B58",
",$	c #726754",
"'$	c #716652",
")$	c #6E634F",
"!$	c #706250",
"~$	c #726452",
"{$	c #766653",
"]$	c #7B6F58",
"^$	c #8F7F65",
"/$	c #8D765A",
"($	c #867257",
"_$	c #8B7355",
":$	c #816C52",
"<$	c #796647",
"[$	c #715A41",
"}$	c #685639",
"|$	c #634F36",
"1$	c #594930",
"2$	c #50432E",
"3$	c #504431",
"4$	c #594F3F",
"5$	c #554F48",
"6$	c #B6B3B1",
"7$	c #C5C3C2",
"8$	c #CAC9C8",
"9$	c #C0BEBB",
"0$	c #7C7873",
"a$	c #797260",
"b$	c #736858",
"c$	c #6D6454",
"d$	c #695F4F",
"e$	c #665D4C",
"f$	c #665C4C",
"g$	c #685E4C",
"h$	c #6B5D4B",
"i$	c #6B6049",
"j$	c #6E624A",
"k$	c #766950",
"l$	c #7E6B52",
"m$	c #7E684D",
"n$	c #766447",
"o$	c #705A41",
"p$	c #6C573D",
"q$	c #644F36",
"r$	c #594931",
"s$	c #50422D",
"t$	c #4E412E",
"u$	c #554835",
"v$	c #ADABA7",
"w$	c #BDBCBA",
"x$	c #CECDCC",
"y$	c #C6C5C2",
"z$	c #BBB9B5",
"A$	c #847C6D",
"B$	c #756E5C",
"C$	c #6F6354",
"D$	c #675F4F",
"E$	c #4E4739",
"F$	c #4C4537",
"G$	c #574C3A",
"H$	c #645746",
"I$	c #675A47",
"J$	c #675C45",
"K$	c #685A45",
"L$	c #6F5D44",
"M$	c #736246",
"N$	c #6A593C",
"O$	c #675639",
"P$	c #645036",
"Q$	c #5A4931",
"R$	c #54442D",
"S$	c #51442F",
"T$	c #534735",
"U$	c #5D513F",
"V$	c #87847E",
"W$	c #B7B6B2",
"X$	c #C5C4C2",
"Y$	c #D1D1D0",
"Z$	c #C3C2BF",
"`$	c #B9B6B2",
" %	c #817A6D",
".%	c #716B59",
"+%	c #675F4D",
"@%	c #474234",
"#%	c #474135",
"$%	c #4B4335",
"%%	c #4D4739",
"&%	c #615742",
"*%	c #635942",
"=%	c #645942",
"-%	c #655642",
";%	c #645840",
">%	c #69563E",
",%	c #5D4D34",
"'%	c #584931",
")%	c #524633",
"!%	c #5A4E3C",
"~%	c #5A554A",
"{%	c #B3B0AC",
"]%	c #C0BFBD",
"^%	c #D0CFCF",
"/%	c #C2C0BD",
"(%	c #B7B4B0",
"_%	c #7A7565",
":%	c #6B6457",
"<%	c #534E41",
"[%	c #4E483A",
"}%	c #574B38",
"|%	c #5F5242",
"1%	c #645B49",
"2%	c #655846",
"3%	c #625841",
"4%	c #625740",
"5%	c #61523E",
"6%	c #5F513C",
"7%	c #5A4E33",
"8%	c #55472F",
"9%	c #524531",
"0%	c #5A4E3B",
"a%	c #5C564B",
"b%	c #B0ADA8",
"c%	c #BDBCB9",
"d%	c #CAC9C7",
"e%	c #C1C0BD",
"f%	c #B6B4AF",
"g%	c #777165",
"h%	c #6C6558",
"i%	c #615848",
"j%	c #625A4A",
"k%	c #675C4B",
"l%	c #6B614D",
"m%	c #675A48",
"n%	c #625943",
"o%	c #645744",
"p%	c #5F553F",
"q%	c #5B503D",
"r%	c #594F35",
"s%	c #534733",
"t%	c #534835",
"u%	c #5C564A",
"v%	c #BCBAB7",
"w%	c #C7C6C5",
"x%	c #C9C9C7",
"y%	c #6D685F",
"z%	c #726C5F",
"A%	c #746D5E",
"B%	c #746C5A",
"C%	c #7A7059",
"D%	c #69604B",
"E%	c #665D48",
"F%	c #645A45",
"G%	c #625543",
"H%	c #5D543B",
"I%	c #5D503C",
"J%	c #5D523F",
"K%	c #5D5242",
"L%	c #B0ACA7",
"M%	c #C6C5C3",
"N%	c #BBB9B6",
"O%	c #B4B2AD",
"P%	c #796F5F",
"Q%	c #787163",
"R%	c #746C5D",
"S%	c #6F6757",
"T%	c #6B6353",
"U%	c #685C48",
"V%	c #665A46",
"W%	c #625846",
"X%	c #635A49",
"Y%	c #685D4C",
"Z%	c #635D56",
"`%	c #B1AEAA",
" &	c #D0D0CF",
".&	c #C8C6C5",
"+&	c #C2C1BE",
"@&	c #BDBCB8",
"#&	c #B9B6B1",
"$&	c #B4B1AB",
"%&	c #756B59",
"&&	c #726856",
"*&	c #666258",
"=&	c #68655B",
"-&	c #6D6A62",
";&	c #B4B3AE",
">&	c #BEBDBA",
",&	c #C9C8C6",
"'&	c #BEBCB7",
")&	c #BAB8B3",
"!&	c #B7B6B1",
"~&	c #B6B4B0",
"{&	c #B8B7B3",
"]&	c #BCBBB8",
"^&	c #C2C2BF",
"/&	c #C9C8C7",
"(&	c #D1D0CF",
"_&	c #C8C6C4",
":&	c #C6C6C4",
". . . . . . . . . . . . . . . . . . . . . . . . . . . . . . . . . . . . . . . . . . . . . . . . ",
". . . . . . . . . . . . . . . . . . . . . . . . . . . . . . . . . . . . . . . . . . . . . . . . ",
". . . . . . . . . . . . . . . . . . . . . . . . . . . . . . . . . . . . . . . . . . . . . . . . ",
". . . . . . . . . . . . . . . . . . . . . . . . . . + + + + + + + + + + + . . . . . . . . . . . ",
". . . . . . . . . . . . . . . . . . . . . . . + + + + + + + + + + + + + + + . . . . . . . . . . ",
". . . . . . . . . . . . . . . . . . . . . . + + + + + + + + + + + + + + + + + + . . . . . . . . ",
". . . . . . . . . . . . . . . . . . . . . + + + + + + @ # # # # # # # + + + + + + . . . . . . . ",
". . . . . . . . . . . . . . . . . . . . + + + + + # # $ % & & & & % % * # + + + + + . . . . . . ",
". . . . . . . . . . . . . . . . . . . + + + + = # % & - ; > , , ' ) - & % # # + + + . . . . . . ",
". . . . . . . . . . . . . . . . + + + + + + @ ! ~ - { ] ^ / ( _ : < [ , ) & % # + + + . . . . . ",
". . . . . . . . . . . . . . . + + + + + + # ! ~ } | 1 2 3 4 5 6 7 8 9 ^ 0 , - % # + + . . . . . ",
". . . . . . . . . . . . . . + + + + + @ * $ a b c d e f g h i j k 6 l 6 m n , & # + + + . . . . ",
". . . . . . . . . . . . . + + + + @ * $ o p q r s t u v w x y z z A B C D E F ) % + + + . . . . ",
". . . . . . . . . . . . + + + + # G H I J K L M N O P Q R S T U U : V W X Y z , % # + + . . . . ",
". . . . . . . . . . . + + + + * Z `  ...+.@.#.$.%.&.*.=.-.;.>.,.{ '.).!.~.{.].[ & # + + . . . . ",
". . . . . . . . . . + + + + # Z ^./.(._.:.<.[.}.|.1.2.3.4.5.6.>.7.F ].8.9.0.a.b.& # + + . . . . ",
". . . . . . . . . + + + + * Z ^.c.d.e.f.g.h.i.j.k.l.m.n.o.p.q.r.s.t.u.v.w.x.y.T z.# + + . . . . ",
". . . . . . . . A.+ + + # Z ^.c.d.B.C.D.1.E.F.G.H.I.J.K.L.M.N.O.P.Q.R.S.T.U.V.F z.# + + . . . . ",
". . . . . . . . + + + # G ` c.d.B.W.X.Y.Z.`. +.+++@+#+$+%+&+*+=+-+;+>+,+'+)+!+0 & # + + . . . . ",
". . . . . . . + + + = ~+{+]+^+/+C.(+_+:+<+[+ +}+|+1+2+3+4+5+6+7+8+9+0+a+b+c+d+e+% + + + . . . . ",
". . . . . . + + + + * o f++.g+h+X._+i+<+[+[+j+k+l+m+n+o+p+q+r+s+t+u+v+w+x+y+z+) A++ + + . . . . ",
". . . . . + + + + * G I B+C+D+X.E+F+G+[+H+I+J+K+L+M+N+O+P+Q+R+S+T+U+V+W+X+Y+b.& # + + . . . . . ",
". . . . . + + + # G I /.Z+`+ @E+.@+@@@#@$@%@&@*@=@-@;@>@,@'@)@!@~@{@]@^@Q./@) A++ + + . . . . . ",
". . . . (@+ + @ G _@:@<@[@}@|@1@2@j+3@4@5@6@7@8@9@0@a@b@c@d@e@f@g@h@i@j@k@'.& # + + . . . . . . ",
". . . . + + + ~+p l@4.m@n@o@p@q@r@s@t@u@6@v@w@x@y@z@A@B@C@D@E@F@G@H@I@J@K@L@% + + + . . . . . . ",
". . . . + + # o  .M@N@O@P@Q@R@S@T@U@V@W@X@Y@Z@`@O+ #.#+#@###$#%#&#H@*#=#-#; ! + + . . . . . . . ",
". . . + + + * ;#>#,#'#)#!#~#{#]#^#n./#(#_#:#<#O+[#}#|#1#2#3#4#5#6#7#8#9#0#a## + + . . . . . . . ",
". . . + + + b#b c#d#e#f#g#h#i#j#k#l#m#n#o#p#q#r#s#t#u#v#w#x#y#z#A#B#C#D#E#F## + + . . . . . . . ",
". . . + + + b#b G#H#I#J#K#L#M#N#O#P#Q#R#S#T#U#V#W#X#Y#Z#`# $.$+$@$#$$$%$&$Z + + + . . . . . . . ",
". . . + + + ~+a#*$=$-$;$>$,$'$)$!$~${$]$^$/$($_$:$<$[$}$|$1$2$3$4$5$6$7$) A++ + . . . . . . . . ",
". . . . + + # a 8$9$0$a$b$c$d$e$f$g$h$i$j$k$l$m$n$o$p$q$r$s$t$u$#$v$w$T & # + + . . . . . . . . ",
". . . . + + = % x$y$z$A$B$C$D$E$F$G$H$I$J$K$L$M$N$O$P$Q$R$S$T$U$V$W$X$; b#+ + + . . . . . . . . ",
". . . . + + + # Y$>.Z$`$ %.%+%@%#%$%%%&%*%=%-%;%>%,%y#'%z#)%!%~%{%]%| & # + + . . . . . . . . . ",
". . . . . + + + A+^%c /%(%_%:%<%[%}%|%1%2%3%4%5%6%7%8%9%)%0%a%b%c%E#- ! + + + . . . . . . . . . ",
". . . . . + + + = b#a#d%e%f%g%h%i%j%k%l%m%n%o%p%q%r%s%t%!%u%j@v%w%; % + + + . . . . . . . . . . ",
". . . . . . + + + = b#a#x%e%9#y%z%A%B%C%D%E%F%G%H%I%J%K%k%L%v%M%x$% # + + + . . . . . . . . . . ",
". . . . . . . + + + # $ a#8$Z$N%O%P%Q%R%S%T%U%V%W%X%Y%Z%`%v%M%x$Z # + + + . . . . . . . . . . . ",
". . . . . . . . + + + # $  &e+.&+&@&#&$&P%%&&&*&*&=&-&;&>&w%x$Z # + + + . . . . . . . . . . . . ",
". . . . . . . . . + + + = ! ~ a#e+,&y$/%'&)&!&~&~&{&]&^&/&; Z # + + + A.. . . . . . . . . . . . ",
". . . . . . . . . . + + + + # A+Z (&; 7.d%_&M%X$0#:&/&e+^%% # + + + A.. . . . . . . . . . . . . ",
". . . . . . . . . . . + + + + + # # b#Z a ^%a#} a#- F#Z * @ + + + A.. . . . . . . . . . . . . . ",
". . . . . . . . . . . . + + + + + + + # # * * * * * # = + + + + . . . . . . . . . . . . . . . . ",
". . . . . . . . . . . . . . + + + + + + + + + + + + + + + + + . . . . . . . . . . . . . . . . . ",
". . . . . . . . . . . . . . . . . + + + + + + + + + + + + + . . . . . . . . . . . . . . . . . . ",
". . . . . . . . . . . . . . . . . . . . . . . . . . . . . . . . . . . . . . . . . . . . . . . . ",
". . . . . . . . . . . . . . . . . . . . . . . . . . . . . . . . . . . . . . . . . . . . . . . . ",
". . . . . . . . . . . . . . . . . . . . . . . . . . . . . . . . . . . . . . . . . . . . . . . . ",
". . . . . . . . . . . . . . . . . . . . . . . . . . . . . . . . . . . . . . . . . . . . . . . . "};
