/* XPM */
static char * keys_xpm[] = {
"96 48 2 1",
" 	c #FFFFFFFFFFFF",
".	c #000000000000",
"                                                                                                ",
"                                                                                                ",
"                                                                                                ",
"                                                                                                ",
"                                                                                                ",
"                                                                                                ",
"                                                                                                ",
"                                                                                                ",
"                                                                                                ",
"                                                                                                ",
"                                                                                                ",
"                                                                                                ",
"                                                                                                ",
"                                                                                                ",
"                                                                                                ",
"                                                                                                ",
"                                                                                                ",
"                                                                                                ",
"                                                                                                ",
"    ......  .                                      .             ... ...                        ",
"     .   ..                                       .               .   .                         ",
"     .    .          .                            .               .  .                          ",
"     .   ....   ..  ...... .. . ..  ..       ..  ...      ..      . .       ..  ..  ..          ",
"     .....  .  .  .  .   .  .  ..  .  .     .  .  .      .  .     ...      .  .  .  .           ",
"     .      .  .     .   .  .  .   ....     .  .  .       ...     . ..     ....  . ..           ",
"     .      .  .     .   .  .  .   .        .  .  .      .  .     .  ..    .     . .            ",
"     .      .  .  .  .   .  .  .   ..  .    .  .  .      .  .     .   ..   ..  .  ..            ",
"    ...    ...  ..    ..  .. ....   ...      ..   .       .. .   ...  ...   ...   .             ",
"                                                                                  .             ",
"                                                                                 .              ",
"                                                                                ..              ",
"                                                                                                ",
"                                                                                                ",
"                                                                                                ",
"                                                                                                ",
"                                                                                                ",
"                                                                                                ",
"                                                                                                ",
"                                                                                                ",
"                                                                                                ",
"                                                                                                ",
"                                                                                                ",
"                                                                                                ",
"                                                                                                ",
"                                                                                                ",
"                                                                                                ",
"                                                                                                ",
"                                                                                                "};
